<svg width="512" height="512" viewBox="0 0 512 512" fill="none" xmlns="http://www.w3.org/2000/svg">
<rect width="512" height="512" fill="white" fill-opacity="0.1"/>
<path d="M217.364 421.284L213.257 385.556C212.375 377.884 203.5 374.065 197.322 378.698L160.077 406.632C152.114 412.604 140.972 411.812 133.935 404.775L107.225 378.065C100.188 371.028 99.3958 359.886 105.368 351.923L133.302 314.678C137.935 308.5 134.116 299.625 126.444 298.743L90.7162 294.636C80.6206 293.476 73 284.929 73 274.767V237.233C73 227.071 80.6206 218.524 90.7162 217.364L126.444 213.257C134.116 212.375 137.935 203.5 133.302 197.322L105.368 160.077C99.3957 152.114 100.188 140.972 107.225 133.935L133.935 107.225C140.972 100.188 152.114 99.3958 160.077 105.368L197.322 133.302C203.5 137.935 212.375 134.116 213.257 126.444L217.364 90.7162C218.524 80.6206 227.071 73 237.233 73H274.767C284.929 73 293.476 80.6206 294.636 90.7162L298.743 126.444C299.625 134.116 308.5 137.935 314.678 133.302L351.923 105.368C359.886 99.3957 371.028 100.188 378.065 107.225L404.775 133.935C411.812 140.972 412.604 152.114 406.632 160.077L378.698 197.322C374.065 203.5 377.884 212.375 385.556 213.257L421.284 217.364C431.379 218.524 439 227.071 439 237.233V274.767C439 284.929 431.379 293.476 421.284 294.636L385.556 298.743C377.884 299.625 374.065 308.5 378.698 314.678L406.632 351.923C412.604 359.886 411.812 371.028 404.775 378.065L378.065 404.775C371.028 411.812 359.886 412.604 351.923 406.632L314.678 378.698C308.5 374.065 299.625 377.884 298.743 385.556L294.636 421.284C293.476 431.379 284.929 439 274.767 439H237.233C227.071 439 218.524 431.379 217.364 421.284Z" fill="url(#paint0_linear_45_5)"/>
<path d="M326 256C326 294.66 294.66 326 256 326C217.34 326 186 294.66 186 256C186 217.34 217.34 186 256 186C294.66 186 326 217.34 326 256ZM207 256C207 283.062 228.938 305 256 305C283.062 305 305 283.062 305 256C305 228.938 283.062 207 256 207C228.938 207 207 228.938 207 256Z" fill="url(#paint1_linear_45_5)"/>
<defs>
<linearGradient id="paint0_linear_45_5" x1="73" y1="73" x2="439" y2="439" gradientUnits="userSpaceOnUse">
<stop stop-color="#B4B4B4" stop-opacity="0.5"/>
<stop offset="1" stop-color="#4E4E4E" stop-opacity="0.8"/>
</linearGradient>
<linearGradient id="paint1_linear_45_5" x1="326" y1="326" x2="186" y2="186" gradientUnits="userSpaceOnUse">
<stop stop-color="#D9D9D9"/>
<stop offset="1" stop-color="#737373"/>
</linearGradient>
</defs>
</svg>
